<?xml version="1.0"?>
<svg xmlns="http://www.w3.org/2000/svg" viewBox="0 0 50 50">
    <path style="line-height:normal;text-indent:0;text-align:start;text-decoration-line:none;text-decoration-style:solid;text-decoration-color:#000;text-transform:none;block-progression:tb;isolation:auto;mix-blend-mode:normal" d="M 5.8457031 3 C 4.2851802 3 3 4.286304 3 5.8457031 L 3 11 L 3 46 A 1.0001 1.0001 0 0 0 4 47 L 46 47 A 1.0001 1.0001 0 0 0 47 46 L 47 10 L 47 5.8457031 C 47 4.286304 45.71482 3 44.154297 3 L 5.8457031 3 z M 5.8457031 5 L 44.154297 5 C 44.633774 5 45 5.3671022 45 5.8457031 L 45 9 L 5 9 L 5 5.8457031 C 5 5.3671022 5.366226 5 5.8457031 5 z M 5 11 L 45 11 L 45 45 L 5 45 L 5 11 z M 17.755859 21 C 15.457859 21 14 22.450109 14 24.287109 C 14 25.564109 15.112516 26.738172 16.478516 27.576172 C 17.480516 28.242172 18.082031 28.784516 18.082031 29.728516 C 18.082031 30.709516 17.428609 31.373047 16.224609 31.373047 C 15.586609 31.373047 14.782172 31.164344 14.326172 30.902344 L 14 32.509766 C 14.382 32.755766 15.312609 32.998047 16.224609 32.998047 C 18.432609 32.998047 20 31.652156 20 29.535156 C 20 28.276156 19.380078 27.138156 17.830078 26.160156 C 16.572078 25.391156 15.916016 24.9725 15.916016 24.0625 C 15.916016 23.3435 16.607703 22.626953 17.720703 22.626953 C 18.376703 22.626953 19.305344 23.022422 19.652344 23.232422 L 20 21.623047 C 19.671 21.431047 18.539859 21 17.755859 21 z M 29 21 L 29 33 L 31 33 L 31 28 L 34 28 L 34 33 L 36 33 L 36 21 L 34 21 L 34 26 L 31 26 L 31 21 L 29 21 z M 24.755859 21.001953 C 22.457859 21.001953 21 22.452063 21 24.289062 C 21 25.566063 22.112516 26.738172 23.478516 27.576172 C 24.480516 28.242172 25.082031 28.784516 25.082031 29.728516 C 25.082031 30.709516 24.428609 31.375 23.224609 31.375 C 22.586609 31.375 21.782172 31.164344 21.326172 30.902344 L 21 32.509766 C 21.382 32.755766 22.312609 33 23.224609 33 C 25.432609 33 27 31.654109 27 29.537109 C 27 28.278109 26.380078 27.140109 24.830078 26.162109 C 23.572078 25.393109 22.916016 24.9725 22.916016 24.0625 C 22.916016 23.3435 23.607703 22.628906 24.720703 22.628906 C 25.376703 22.628906 26.305344 23.024375 26.652344 23.234375 L 27 21.625 C 26.671 21.433 25.539859 21.001953 24.755859 21.001953 z" font-weight="400" font-family="sans-serif" white-space="normal" overflow="visible"/>
</svg>
